#!OML:ASF F:\VICON\USERDATA\INSTALL\rory3\rory3.ASF
:FULLY-SPECIFIED
:DEGREES
47
root -0.4832079453432186 18.16465686616579 15.464708204922054 3.812756115388761 4.247460907598405 -1.3484782314064248
lfemur -18.50336383091557 -5.54188643170673 -24.688477866739404
ltibia -23.881182510010397
lfoot -16.374482425578567 -4.108466563409167
ltoes -35.00009467244215
rfemur 6.252423480094571 6.591857674456874 31.62283293213553
rtibia 38.26621833475953
rfoot 36.90998841134072 -7.868394594056285
rtoes 41.98028501553283
lowerback 1.0 1.6524573799891966 4.003029913318991
upperback -1.764697038378879 3.711958920587799 0.32087711131002616
thorax -9.400709827194008 1.0913500473880877 -0.6943346422707707
lowerneck -23.237671870147715 -5.566675649004054 -1.573179101394102
upperneck 16.127542586585484 -6.474831990643727 1.8260682297473774
head 8.637868909146809 -2.990151580141174 0.1277260013822874
lclavicle 2.2265360074434765e-14 1.8599030018488343e-14
lhumerus -65.20893483292505 -2.1247119296372627 91.77353188686665
lradius 124.77355185820714
lwrist 43.60678591150422
lhand -28.049944222180685 -0.9719534031604891
lfingers nan
lthumb -1.5451044346724698 29.014964124171478
rclavicle 1.8806384191224025e-14 1.458429817333313e-14
rhumerus -54.91908816148657 14.400020141290984 -108.24881961494847
rradius 134.07977707745687
rwrist -33.56125220558556
rhand -19.718993001068355 1.0
rfingers nan
rthumb 6.432140286778695 -4.717840658449331
48
root -0.4841972623244737 18.150340654414332 16.537982940617347 3.4590677296085977 4.165814002960822 -1.3727299675715225
lfemur -17.17043700788385 -5.198120914288381 -25.21954209419218
ltibia -21.792218464652713
lfoot -14.832897249020228 -3.0112841291671453
ltoes -31.985667892788314
rfemur 4.792972223344684 6.268809745597879 31.579110111275067
rtibia 42.5824117727647
rfoot 36.29897350634591 -9.656822960235397
rtoes 42.652986329238274
lowerback 1.0 1.5350159384888797 3.89510025248185
upperback -1.4554750611295875 3.601606261022344 0.3011747284128694
thorax -9.33143957617374 1.03638230756441 -0.7223278376154322
lowerneck -23.14761734942653 -5.499081840452856 -1.5330195508889974
upperneck 15.307938215219485 -6.384537285968711 1.896210289083536
head 8.321729550099338 -2.943018324552287 0.17390981485955087
lclavicle -9.816329977724853e-14 -1.6932705141309473e-14
lhumerus -64.60082180665214 -2.31195813693874 91.77384568955716
lradius 125.24848016206553
lwrist 44.39005868343556
lhand -30.090501290199743 -1.6995135202374376
lfingers nan
lthumb -3.5116592834385756 28.238680013671832
rclavicle -1.0213278135711799e-13 -2.074426530705502e-14
rhumerus -54.97829811472757 14.061013417023126 -108.19465482712376
rradius 133.18621748222552
rwrist -32.266085572619076
rhand -19.859676778623836 1.0
rfingers nan
rthumb 6.260596905625994 -6.212723874239558
49
root -0.49016398191256166 18.130902122833028 17.513290581013944 3.0539727374188557 4.344483122145458 -1.2216002032198914
lfemur -15.879413090484121 -4.830008606866699 -25.87748474554744
ltibia -19.33366598267329
lfoot -14.22220050787853 -3.142472798107077
ltoes -30.033794247300875
rfemur 3.2681184832517474 5.703858201296081 31.529967788988497
rtibia 47.14161030496726
rfoot 36.056402749855664 -11.593617203247351
rtoes 42.68912445031897
lowerback 1.0 1.3434093940195437 3.5549292133912385
upperback -1.0110411854549015 3.375304286756701 0.3314250221280559
thorax -9.298278842611543 0.9333049328458805 -0.5792809875894606
lowerneck -23.677076465912542 -5.302219815204582 -1.6316093067520803
upperneck 14.728412037301798 -6.163591669318801 2.0797810298530717
head 8.201827627063022 -2.8286491362711956 0.2856465542345323
lclavicle -5.342941670703647e-14 -7.323951400151989e-15
lhumerus -63.74630432216762 -2.431814311741393 91.88983545049385
lradius 125.82451223490433
lwrist 45.462261209217345
lhand -32.74495623608929 -1.0086973796009342
lfingers nan
lthumb -6.088465853126959 28.883225527239265
rclavicle -5.739610732468034e-14 -1.0735416873725315e-14
rhumerus -54.89014474348945 13.765652669504004 -107.60274667551799
rradius 132.10397435939083
rwrist -32.46424956111905
rhand -19.23052202844083 1.0
rfingers nan
rthumb 6.857270043538746 -5.13871458026636
50
root -0.5009491815984581 18.077116374702285 18.62324520778873 2.5646737749383743 5.000178389268512 -0.8277454657885045
lfemur -14.427027435163964 -4.821066678387056 -26.68361913072643
ltibia -16.93761156440842
lfoot -13.630601097522021 -4.2833620852695
ltoes -29.757716353881037
rfemur 1.4809919276239114 4.3957488683140316 30.88704771737551
rtibia 51.89757049186485
rfoot 36.13303757914157 -13.39950385295434
rtoes 43.73141901031059
lowerback 1.0 1.1081128388695025 3.1672959949068114
upperback -0.6485445341542811 3.060424422203893 0.19609274303694324
thorax -9.754530181388724 0.7812404653287889 -0.48383505865261933
lowerneck -24.35666063171318 -5.150839025065895 -1.6015194778396886
upperneck 14.352965151292915 -6.0700488375022505 2.1803887501243864
head 8.1801958126112 -2.759467674166273 0.31861779117346045
lclavicle -3.510580600468544e-14 -3.2205055548913654e-14
lhumerus -62.79951737158705 -2.824361844930717 92.0490858324118
lradius 126.22309058745961
lwrist 46.56266428268172
lhand -32.683243229968404 -1.028922028250817
lfingers nan
lthumb -6.020099267514359 28.88371777317498
rclavicle -3.9300313850326954e-14 -3.566367189414042e-14
rhumerus -54.810479296485134 13.260310165409347 -107.06048346515192
rradius 130.92537357589416
rwrist -31.4676665934284
rhand -18.548862981409723 1.0
rfingers nan
rthumb 7.53584651703175 -4.02530262822976
